# xmcd
#
# Track frame offsets:
#	150
#	16407
#	36617
#	58134
#	85088
#	105952
#	125037
#	148526
#
# Disc length: 2430 seconds
#
# Revision: 0
# Processed by: cddbd v1.5.2PL0 Copyright (c) Steve Scherf et al.
# Submitted via: audiograbber 1.83.01
#
DISCID=6b097c08
DTITLE=Raygun Rebels - Bring Me Home
DYEAR=2011
DGENRE=Rock
TTITLE0=Here We Are
TTITLE1=Lay Down Baby
TTITLE2=Financial Disterss Blues
TTITLE3=Goodbye
TTITLE4=I Want You
TTITLE5=Let Me Go
TTITLE6=The Killer
TTITLE7=Bring Me Home
EXTD=
EXTT0=
EXTT1=
EXTT2=
EXTT3=
EXTT4=
EXTT5=
EXTT6=
EXTT7=
PLAYORDER=
